# xmcd
#
# Track frame offsets: 
#        150
#        18689
#        42863
#        65745
#
# Disc length: 1187 seconds
#
# Revision: 0
# Processed by: cddbd v1.5.2PL0 Copyright (c) Steve Scherf et al.
# Submitted via: ExactAudioCopy v0.99pb4
#
DISCID=3304a104
DTITLE=Groove Armada Featuring Gram'ma Funk - I See You Baby
DYEAR=2220
DGENRE=Dance
TTITLE0=Groove Armada Featuring Gram'ma Funk - I See You Baby
TTITLE1=Groove Armada - Madder
TTITLE2=Groove Armada - Black Sheep
TTITLE3=Groove Armada - Blame It On The Sun
EXTD=
EXTT0=
EXTT1=
EXTT2=
EXTT3=
PLAYORDER=
